<?xml version="1.0" encoding="utf-8"?>
<!-- Generator: Adobe Illustrator 27.4.0, SVG Export Plug-In . SVG Version: 6.00 Build 0)  -->
<svg version="1.1" id="Capa_2_00000132790614270810042860000004367794367952075941_"
	 xmlns="http://www.w3.org/2000/svg" xmlns:xlink="http://www.w3.org/1999/xlink" x="0px" y="0px" viewBox="0 0 72.1 65.3"
	 style="enable-background:new 0 0 72.1 65.3;" xml:space="preserve">
<g>
	<path d="M56.5,23c-0.2-6.9-2.4-14.6-8.8-18.4c-5.9-3.5-14.4-3.7-20.3-0.4c-6.9,3.7-10.5,9.8-10.5,17.7c0,2.9,0,41.4,0,41.4h23.5
		c8.9,0,16.1-7.2,16.2-16.1C56.7,39.1,56.7,29.6,56.5,23z M44.6,20.6c-0.8,0-1.4-0.7-1.4-1.4c0-0.8,0.7-1.4,1.4-1.4
		c0.8,0,1.4,0.7,1.4,1.4C46,19.9,45.4,20.6,44.6,20.6z M50.8,20.6c-0.8,0-1.4-0.7-1.4-1.4c0-0.8,0.7-1.4,1.4-1.4s1.4,0.7,1.4,1.4
		C52.2,19.9,51.5,20.6,50.8,20.6z"/>
	<g>
		<path d="M6.7,50.8c-4.8,0-5.7-0.8-5.9-1.7c-0.3-1.1,0.7-2.8,9.9-5.9c6.4-2.2,15-4.5,24.2-6.5c9.3-2,18.1-3.4,24.8-3.9
			c9.8-0.8,11.2,0.3,11.5,1.4l0,0c0.3,1.1-0.7,2.8-9.9,5.9c-6.4,2.2-15,4.5-24.2,6.5S19.1,50,12.4,50.5C10.1,50.7,8.2,50.8,6.7,50.8
			z M2.2,48.8c0.2,0.2,1.4,1.2,10.5,0.3c6.6-0.6,15.2-2,24.1-3.8c8.9-1.9,17.3-4.2,23.6-6.3c8.7-3,9.4-4.4,9.5-4.6
			c-0.2-0.2-1.4-1.2-10.5-0.3c-6.6,0.6-15.2,2-24.1,3.8C26.4,39.7,18,42,11.7,44.2C3,47.1,2.2,48.6,2.2,48.8z"/>
	</g>
</g>
</svg>
