<?xml version="1.0" encoding="utf-8"?>
<!-- Generator: Adobe Illustrator 27.4.0, SVG Export Plug-In . SVG Version: 6.00 Build 0)  -->
<svg version="1.1" id="Capa_2_00000132790614270810042860000004367794367952075941_"
	 xmlns="http://www.w3.org/2000/svg" xmlns:xlink="http://www.w3.org/1999/xlink" x="0px" y="0px" viewBox="0 0 75.9 74.9"
	 style="enable-background:new 0 0 75.9 74.9;" xml:space="preserve">
<g>
	<g>
		<path d="M36.5,57.2c-0.2-0.8-0.1-1.7-0.1-2.5c0.1-1.6,0.1-3.3,0.2-4.9c0-0.6,0-1.2,0.4-1.7c0.5-0.6,1.5-0.8,2.2-1.2
			c1.2-0.7,1.5-2.2,1.2-3.6s-1.4-2.3-2.6-3c-0.6-0.4-1.3-0.7-1.6-1.3C36,38.6,36,38.2,36,37.7c0.1-3.1,0-6.6,2.1-9
			c2-2.4,4.4-4.5,4.2-8c-0.1-1.4-0.5-2.8-1.4-4c-0.7-1-2-2.3-2.9-3.3c1,2.1,1.3,8-2.8,5.4c-3.5-2.1-0.8-7.6-1.5-10.6
			c-1.1-4.4-5.2-7-8.6-7c1.7,1.2,3.3,5.8,2.3,7.7c-1.5,3.1-3.2-1.8-5.4,0.1c-2.4,2-0.8,7.4-3.6,8.4c-3.2,1.1-6.8-2.9-5-5.9
			c-3.1,0-5.2,4.6-5.7,5.6c-2.4,5.2-2.8,12-2.1,28.4C6,56.7,2.2,62.4,1.2,70.3c-0.3,2,1.3,3.8,3.4,3.8h37.6
			C42.2,64.5,36.6,57.9,36.5,57.2z M27.3,37.1c0,0.7-0.5,1.2-1.2,1.2c-0.7,0-1.2-0.5-1.2-1.2c0-0.7,0.5-1.2,1.2-1.2
			C26.7,35.8,27.3,36.4,27.3,37.1z M32.6,37.1c0,0.7-0.5,1.2-1.2,1.2c-0.7,0-1.2-0.5-1.2-1.2c0-0.7,0.5-1.2,1.2-1.2
			C32,35.8,32.6,36.4,32.6,37.1z"/>
		<path d="M18.7,6.9c-0.5,1.6-1.8,1.6-2.4,2.8c-0.8,1.4,0.2,3-0.3,3.8C18.8,13.7,19.5,9,18.7,6.9z"/>
	</g>
	<path d="M43.1,74.1h8.4c2.7,0,5-1.9,5.5-4.5l0.8-4.1c0,0,1-7.3,6.3-7.7c7.1-0.6,9.9-4,10.4-10c0.1-1.2-0.8-2.3-2.1-2.3l-10.2-0.1
		c-0.5,0-1-0.4-1-1c-0.1-2.8-2-4.5-4.5-3.3c-2.6,1.3-0.1,4.7-1.2,7.6c-0.9,2.1-5.4,5.6-7,7.4c-1.7,1.9-5.8,5.6-7.6,7.1
		c-0.5,0.4-0.8,1.1-0.7,1.8l0.7,7.2C41.1,73.3,42.1,74.1,43.1,74.1z"/>
	<g>
		<path d="M59.9,33.7c-0.5-3,0.4-6.2,2.7-9.2c0.2-0.3,0.5-0.4,0.8-0.3c0.4,0.1,0.5,0.4,0.5,0.7c0,0.6,0,1.2,0.3,2
			c1-2.9,3.3-5.6,4.2-6.4c0.3-0.3,0.6-0.3,0.9-0.1c0.4,0.2,0.4,0.4,0.4,0.8c-0.8,2.7,0.1,5.7,1,7.7c0.1-0.9,0.3-1.9,0.5-2.7
			c0.1-0.4,0.5-0.6,0.9-0.5c0.3,0.1,0.5,0.4,0.5,0.7c0,0.1,0,0.1,0,0.2c-0.2,0.7,0.2,1.6,0.6,2.7c0.5,1.2,1.1,2.5,1.1,4.2
			c0,3.6-2.9,6.3-6.8,6.3C63.2,39.9,60.5,36.8,59.9,33.7z M71.9,31.8c0,0.3-0.3,0.5-0.5,0.6c-0.4,0.1-0.6-0.1-0.8-0.4
			c-0.9-1.5-2.8-4.9-2.7-8.5c-1.2,1.6-2.5,3.8-2.6,5.8c0,0.4-0.3,0.6-0.5,0.7c-0.3,0-0.6-0.1-0.8-0.4c-0.7-1-1.1-1.9-1.2-2.6
			c-1.2,2.1-1.6,4.3-1.2,6.4c0.4,2.5,2.6,5.1,5.9,5.1c3.1,0,5.3-2,5.3-4.9c0-1.2-0.4-2.3-0.8-3.3C71.8,31.1,71.8,31.7,71.9,31.8z"/>
	</g>
</g>
</svg>
