<?xml version="1.0" encoding="utf-8"?>
<!-- Generator: Adobe Illustrator 27.4.0, SVG Export Plug-In . SVG Version: 6.00 Build 0)  -->
<svg version="1.1" id="Capa_2_00000132790614270810042860000004367794367952075941_"
	 xmlns="http://www.w3.org/2000/svg" xmlns:xlink="http://www.w3.org/1999/xlink" x="0px" y="0px" viewBox="0 0 73.7 70.8"
	 style="enable-background:new 0 0 73.7 70.8;" xml:space="preserve">
<g>
	<path d="M44.6,12.6c-0.6-1.4-1.9-2.4-3.3-2.8c-1.5-0.4-3-0.3-4.4,0.4c-1.1,0.5-2.1,1.6-3.3,2c-1.3,0.3-2.6-0.3-3.9-0.6
		c-1.3-0.3-2.6-0.5-3.9-0.3c-1.8,0.3-3.3,1.4-5.1,1.7c-1.8,0.4-3.7,0.2-5.5,0.7c-2.6,0.7-5,2-6.8,3.9c-2.7,2.7-3.8,6.3-4.5,9.9
		C4,27.6,4,28,3.9,28.2L4,28.1C4.2,28,4.4,28,4.4,27.9c0.7-0.4,1.6-0.9,2.4-1.1c-0.1,0.9-0.7,2.1-1.3,2.7C5.1,30.1,4.6,30.6,4,31
		c-0.2,0.1-0.4,0.3-0.7,0.4c0,0.3-0.1,0.5-0.1,0.8C3.7,32,4.3,32,4.6,32c0.7,0.1,1.4,0.3,2,0.6c0.9,0.5,1.6,1.2,2.2,1.9
		c-1.1,0.2-2.1,0.3-3.3,0c-0.4-0.1-1.9-0.5-2.5-1.2c-0.3,3.1-0.4,6.2-0.6,9.3C2.3,47.7,2,58.3,1.8,65.3c-0.1,2,1.6,3.7,3.6,3.7h37.4
		c-1.7-12.1-5.4-17-5.7-17.8C37,50.3,37,49.5,37,48.7c0.1-1.6,0.1-3.3,0.2-4.9c0-0.6,0.1-1.2,0.4-1.7c0.5-0.7,1.5-0.9,2.2-1.3
		c1.1-0.8,1.5-2.3,1.2-3.6c-0.4-1.3-1.5-2.3-2.6-3c-0.6-0.3-1.4-0.7-1.6-1.4c-0.2-0.4-0.2-0.9-0.2-1.3c0.1-3.4,0.2-6.9,2.1-9.8
		c0.9-1.5,2.3-1.3,3.8-2c1.4-0.7,2.2-2.2,2.4-3.8C45.1,14.9,45,13.7,44.6,12.6z M15.7,25.2c0.2-0.9,0.3-1,0.9-1.8
		c0.5-0.9,1.2-1.5,2.1-2.1c0,0.3,0,0.7,0,1c-0.2,1.7-0.5,2.7-1.8,3.7C15.8,26.9,15.5,26,15.7,25.2z M11.9,26.7c0.9-1,1.3-1.1,2.7-2
		c-0.5,1.9-0.3,2.1-1.5,3.5c-0.3,0.3-0.8,0.5-1.1,0.7c-0.4,0.2-0.7,0.2-0.7-0.5C11.1,27.9,11.4,27.3,11.9,26.7z M7.9,30.4
		c-0.3-0.2-0.3-0.9-0.3-1.1C7.8,28.6,8,28,8.4,27.6c0.7-0.9,1.5-1.5,2.6-2c-0.1,1-0.3,2.1-0.8,3c-0.5,0.9-0.9,1.2-1.7,1.7
		C8.3,30.4,8,30.5,7.9,30.4z M11.6,33.2c-0.8,0-3.6-0.5-3.3-1.7c0.2-0.7,1.3-0.8,1.8-0.9c0.8-0.1,1.5,0.1,2.2,0.3
		c1,0.3,1.9,0.9,2.7,1.6C14,33,12.8,33.3,11.6,33.2z M13.1,30.4c-0.3-0.1-0.9-0.3-0.7-0.8c0.2-0.3,0.9-0.7,1.2-0.8
		c0.9-0.3,1.8-0.3,2.7,0.2c0.9,0.3,1.5,0.9,2.2,1.5C16.8,31,14.8,31,13.1,30.4z M19.6,28.4c-0.5,0-3.3,0.1-3.1-0.7
		c0.1-0.4,1-0.6,1.4-0.7c0.5-0.2,1.1-0.2,1.7-0.1c0.9,0.1,1.8,0.5,2.7,0.9C21.4,28.2,20.5,28.4,19.6,28.4z M22.7,24.2
		c-0.5,0.5-0.8,0.8-1.4,1.1c-0.6,0.3-1.4,0.5-2,0.3c-0.7-0.3-0.2-1.1,0.2-1.5c0.7-0.7,1.2-1,2.1-1.3c0.9-0.3,1.5-0.3,2.5-0.3
		C23.4,23.1,23.3,23.6,22.7,24.2z M26.7,32.2c-0.7,0-1.3-0.6-1.3-1.3s0.6-1.3,1.3-1.3c0.7,0,1.3,0.6,1.3,1.3
		C28,31.6,27.4,32.2,26.7,32.2z M32.1,32.2c-0.7,0-1.3-0.6-1.3-1.3s0.6-1.3,1.3-1.3c0.7,0,1.3,0.6,1.3,1.3
		C33.3,31.6,32.7,32.2,32.1,32.2z"/>
	<path d="M31.9,68.9c0,0,9.6-14.7,11.7-17.9c1.8-2.8,3.7-5.7,5.6-8.5c0.9-1.4,1.9-2.7,2.8-4.1c0.8-1.1,1.6-2.4,0.7-3.7
		c-0.5-0.8-1.1-1.4-1.2-2.4c-0.1-1.3,0.7-2.4,2-2.5c0.6-0.1,1.5,0.1,1.9,0.4c0.6,0.5,0.8,1.5,1.2,2.2c0.3,0.4,1.1,0.6,1.8-0.2
		c1.1-1.3,2.8-3.4,4.1-5c0.9-1.1,2.4-1.2,3.5-0.3c3,2.5,4.9,6.2,0.7,11.7c-4,5.1-11.8,20.7-15,27.4c-0.9,1.9-2.8,3.1-4.9,3.1H31.9
		V68.9z"/>
	<g>
		<path d="M52,25.2c-0.2,0-0.3-0.1-0.5-0.2c-0.3-0.3-0.3-0.7-0.1-0.9l7.7-9.3l-8,2.1c-0.3,0.1-0.6-0.1-0.8-0.3
			c-0.2-0.3-0.2-0.6,0-0.9L59.2,4c0.1-0.2,0.3-0.3,0.4-0.3l12.1-1.9c0.3-0.1,0.6,0.1,0.8,0.4c0.1,0.3,0,0.7-0.3,0.9l-6.3,4.7L71,7
			c0.3-0.1,0.6,0.1,0.8,0.4c0.2,0.3,0.1,0.6-0.2,0.9L52.6,25C52.4,25.1,52.2,25.2,52,25.2z M61.1,12.8c0.3,0,0.4,0.1,0.6,0.3
			s0.2,0.6-0.1,0.9l-3.3,4l10.5-9.2l-5.5,0.9c-0.3,0.1-0.7-0.1-0.8-0.4s0-0.7,0.3-0.9l6.4-4.8l-8.9,1.4l-7.5,9.9l8.1-2.1
			C61,12.8,61,12.8,61.1,12.8z"/>
	</g>
</g>
</svg>
